<?xml version="1.0" encoding="UTF-8"?>
<svg xmlns="http://www.w3.org/2000/svg" xmlns:xlink="http://www.w3.org/1999/xlink" width="782.14pt" height="138.93pt" viewBox="0 0 782.14 138.93" version="1.1">
<defs>
<clipPath id="clip1">
  <path d="M 0 0 L 782.140625 0 L 782.140625 138.929688 L 0 138.929688 Z M 0 0 "/>
</clipPath>
</defs>
<g id="surface1">
<path style=" stroke:none;fill-rule:nonzero;fill:rgb(100%,100%,100%);fill-opacity:1;" d="M 66.964844 21.671875 L 558.4375 21.671875 C 594.53125 21.671875 623.792969 47.105469 623.792969 78.480469 C 623.792969 109.882813 594.53125 135.304688 558.4375 135.304688 L 66.964844 135.304688 C 30.871094 135.304688 1.609375 109.882813 1.609375 78.480469 C 1.609375 47.105469 30.871094 21.671875 66.964844 21.671875 "/>
<g clip-path="url(#clip1)" clip-rule="nonzero">
<path style=" stroke:none;fill-rule:nonzero;fill:rgb(0%,39.599609%,21.199036%);fill-opacity:1;" d="M 85.722656 -0.00390625 C 38.457031 -0.00390625 0 31.175781 0 69.453125 C 0 107.765625 38.457031 138.929688 85.722656 138.929688 L 696.429688 138.929688 C 743.695313 138.929688 782.136719 107.765625 782.136719 69.453125 C 782.136719 31.175781 743.695313 -0.00390625 696.429688 -0.00390625 Z M 9.027344 69.453125 C 9.027344 35.765625 43.417969 8.347656 85.722656 8.347656 L 696.429688 8.347656 C 738.710938 8.347656 773.121094 35.765625 773.121094 69.453125 C 773.121094 103.183594 738.710938 130.59375 696.429688 130.59375 L 85.722656 130.59375 C 43.417969 130.59375 9.027344 103.183594 9.027344 69.453125 "/>
</g>
<path style=" stroke:none;fill-rule:nonzero;fill:rgb(0%,39.599609%,21.199036%);fill-opacity:1;" d="M 84.574219 16.140625 L 697.550781 16.140625 C 733.503906 16.140625 762.636719 40.015625 762.636719 69.453125 C 762.636719 98.929688 733.503906 122.800781 697.550781 122.800781 L 84.574219 122.800781 C 48.644531 122.800781 19.503906 98.929688 19.503906 69.453125 C 19.503906 40.015625 48.644531 16.140625 84.574219 16.140625 "/>
<path style=" stroke:none;fill-rule:evenodd;fill:rgb(100%,100%,100%);fill-opacity:1;" d="M 241.054688 58.5 C 241.207031 58.5 241.507813 58.507813 241.996094 58.53125 L 241.996094 68.753906 C 241.3125 68.6875 240.714844 68.640625 240.195313 68.617188 C 239.671875 68.589844 239.253906 68.574219 238.925781 68.574219 C 234.652344 68.574219 231.792969 69.898438 230.335938 72.492188 C 229.511719 73.972656 229.105469 76.246094 229.105469 79.292969 L 229.105469 97.53125 L 218.425781 97.53125 L 218.425781 59.371094 L 228.535156 59.371094 L 228.535156 66.015625 C 230.191406 63.480469 231.609375 61.738281 232.824219 60.808594 C 234.808594 59.238281 237.394531 58.457031 240.5625 58.457031 C 240.765625 58.457031 240.921875 58.472656 241.054688 58.5 "/>
<path style=" stroke:none;fill-rule:evenodd;fill:rgb(100%,100%,100%);fill-opacity:1;" d="M 421.363281 81.597656 C 421.714844 83.964844 422.382813 85.726563 423.402344 86.894531 C 425.273438 89.011719 428.460938 90.082031 432.984375 90.082031 C 435.679688 90.082031 437.878906 89.796875 439.574219 89.230469 C 442.773438 88.171875 444.359375 86.171875 444.359375 83.265625 C 444.359375 81.539063 443.582031 80.238281 441.988281 79.292969 C 440.398438 78.378906 437.902344 77.578125 434.503906 76.871094 L 428.683594 75.660156 C 422.992188 74.433594 419.035156 73.117188 416.863281 71.691406 C 413.152344 69.316406 411.316406 65.585938 411.316406 60.527344 C 411.316406 55.90625 413.101563 52.0625 416.671875 49.003906 C 420.238281 45.949219 425.5 44.421875 432.414063 44.421875 C 438.191406 44.421875 443.128906 45.863281 447.183594 48.765625 C 451.289063 51.628906 453.433594 55.804688 453.640625 61.296875 L 442.625 61.296875 C 442.414063 58.191406 440.988281 55.988281 438.296875 54.6875 C 436.519531 53.8125 434.285156 53.378906 431.625 53.378906 C 428.675781 53.378906 426.324219 53.941406 424.554688 55.066406 C 422.789063 56.179688 421.925781 57.757813 421.925781 59.761719 C 421.925781 61.597656 422.789063 62.980469 424.53125 63.894531 C 425.648438 64.492188 428.019531 65.203125 431.664063 66.015625 L 441.132813 68.160156 C 445.28125 69.101563 448.382813 70.335938 450.511719 71.90625 C 453.785156 74.34375 455.425781 77.835938 455.425781 82.445313 C 455.425781 87.167969 453.511719 91.09375 449.648438 94.210938 C 445.828125 97.328125 440.425781 98.871094 433.417969 98.871094 C 426.273438 98.871094 420.644531 97.34375 416.5625 94.285156 C 412.460938 91.207031 410.417969 86.976563 410.417969 81.597656 L 421.363281 81.597656 "/>
<path style=" stroke:none;fill-rule:evenodd;fill:rgb(100%,100%,100%);fill-opacity:1;" d="M 486.757813 59.613281 C 488.8125 60.433594 490.503906 61.675781 491.816406 63.367188 C 492.945313 64.785156 493.609375 66.246094 493.882813 67.769531 C 494.121094 69.265625 494.234375 71.71875 494.234375 75.132813 L 494.234375 97.53125 L 483.417969 97.53125 L 483.417969 74.316406 C 483.417969 72.269531 483.03125 70.609375 482.292969 69.359375 C 481.324219 67.578125 479.480469 66.683594 476.773438 66.683594 C 473.972656 66.683594 471.84375 67.578125 470.378906 69.359375 C 468.933594 71.101563 468.222656 73.609375 468.222656 76.871094 L 468.222656 97.53125 L 457.644531 97.53125 L 457.644531 46.105469 L 468.222656 46.105469 L 468.222656 64.339844 C 469.746094 62.132813 471.523438 60.589844 473.542969 59.714844 C 475.578125 58.835938 477.710938 58.390625 479.933594 58.390625 C 482.457031 58.390625 484.71875 58.804688 486.757813 59.613281 "/>
<path style=" stroke:none;fill-rule:evenodd;fill:rgb(100%,100%,100%);fill-opacity:1;" d="M 524.921875 87.382813 C 526.59375 85.308594 527.421875 82.351563 527.421875 78.523438 C 527.421875 74.695313 526.59375 71.757813 524.921875 69.703125 C 523.257813 67.613281 520.882813 66.589844 517.78125 66.589844 C 514.671875 66.589844 512.285156 67.613281 510.585938 69.703125 C 508.933594 71.757813 508.101563 74.695313 508.101563 78.523438 C 508.101563 82.351563 508.933594 85.308594 510.585938 87.382813 C 512.285156 89.46875 514.671875 90.507813 517.78125 90.507813 C 520.882813 90.507813 523.257813 89.46875 524.921875 87.382813 Z M 533.421875 92.917969 C 529.996094 96.890625 524.78125 98.871094 517.816406 98.871094 C 510.855469 98.871094 505.640625 96.890625 502.214844 92.917969 C 498.792969 88.925781 497.070313 84.128906 497.070313 78.523438 C 497.070313 73.027344 498.792969 68.246094 502.214844 64.207031 C 505.640625 60.160156 510.855469 58.144531 517.816406 58.144531 C 524.78125 58.144531 529.996094 60.160156 533.421875 64.207031 C 536.84375 68.246094 538.546875 73.027344 538.546875 78.523438 C 538.546875 84.128906 536.84375 88.925781 533.421875 92.917969 "/>
<path style=" stroke:none;fill-rule:evenodd;fill:rgb(100%,100%,100%);fill-opacity:1;" d="M 567.378906 70.648438 C 565.953125 68.382813 563.628906 67.25 560.457031 67.25 C 556.59375 67.25 553.96875 68.972656 552.523438 72.390625 C 551.78125 74.21875 551.402344 76.539063 551.402344 79.335938 C 551.402344 83.773438 552.65625 86.894531 555.160156 88.683594 C 556.664063 89.730469 558.414063 90.265625 560.457031 90.265625 C 563.402344 90.265625 565.644531 89.1875 567.175781 87.042969 C 568.753906 84.886719 569.53125 82.03125 569.53125 78.457031 C 569.53125 75.511719 568.804688 72.910156 567.378906 70.648438 Z M 575.53125 63.464844 C 578.832031 66.765625 580.476563 71.597656 580.476563 77.964844 C 580.476563 84.683594 578.867188 89.816406 575.625 93.335938 C 572.441406 96.859375 568.296875 98.621094 563.230469 98.621094 C 560.007813 98.621094 557.335938 97.859375 555.195313 96.355469 C 554.03125 95.507813 552.902344 94.285156 551.78125 92.675781 L 551.78125 112.566406 L 541.28125 112.566406 L 541.28125 59.371094 L 551.441406 59.371094 L 551.441406 65.011719 C 552.582031 63.351563 553.796875 62.042969 555.085938 61.089844 C 557.449219 59.386719 560.242188 58.53125 563.507813 58.53125 C 568.234375 58.53125 572.242188 60.183594 575.53125 63.464844 "/>
<path style=" stroke:none;fill-rule:evenodd;fill:rgb(100%,100%,100%);fill-opacity:1;" d="M 609.382813 70.648438 C 607.953125 68.382813 605.652344 67.25 602.453125 67.25 C 598.605469 67.25 595.960938 68.972656 594.503906 72.390625 C 593.769531 74.21875 593.402344 76.539063 593.402344 79.335938 C 593.402344 83.773438 594.660156 86.894531 597.160156 88.683594 C 598.652344 89.730469 600.421875 90.265625 602.453125 90.265625 C 605.402344 90.265625 607.648438 89.1875 609.191406 87.042969 C 610.753906 84.886719 611.527344 82.03125 611.527344 78.457031 C 611.527344 75.511719 610.8125 72.910156 609.382813 70.648438 Z M 617.511719 63.464844 C 620.828125 66.765625 622.484375 71.597656 622.484375 77.964844 C 622.484375 84.683594 620.863281 89.816406 617.644531 93.335938 C 614.441406 96.859375 610.308594 98.621094 605.230469 98.621094 C 602.007813 98.621094 599.347656 97.859375 597.214844 96.355469 C 596.03125 95.507813 594.894531 94.285156 593.769531 92.675781 L 593.769531 112.566406 L 583.28125 112.566406 L 583.28125 59.371094 L 593.453125 59.371094 L 593.453125 65.011719 C 594.582031 63.351563 595.789063 62.042969 597.082031 61.089844 C 599.441406 59.386719 602.242188 58.53125 605.5 58.53125 C 610.242188 58.53125 614.253906 60.183594 617.511719 63.464844 "/>
<path style=" stroke:none;fill-rule:evenodd;fill:rgb(100%,100%,100%);fill-opacity:1;" d="M 636.488281 54.824219 L 625.730469 54.824219 L 625.730469 45.613281 L 636.488281 45.613281 Z M 625.730469 59.371094 L 636.488281 59.371094 L 636.488281 97.53125 L 625.730469 97.53125 L 625.730469 59.371094 "/>
<path style=" stroke:none;fill-rule:evenodd;fill:rgb(100%,100%,100%);fill-opacity:1;" d="M 673.695313 61.582031 C 676.375 63.644531 677.707031 67.054688 677.707031 71.835938 L 677.707031 97.53125 L 666.84375 97.53125 L 666.84375 74.316406 C 666.84375 72.328125 666.558594 70.78125 666.003906 69.703125 C 664.949219 67.730469 662.957031 66.765625 660.023438 66.765625 C 656.441406 66.765625 653.972656 68.1875 652.625 71.070313 C 651.917969 72.582031 651.582031 74.53125 651.582031 76.871094 L 651.582031 97.53125 L 641.007813 97.53125 L 641.007813 59.433594 L 651.238281 59.433594 L 651.238281 65.011719 C 652.597656 63.046875 653.902344 61.632813 655.125 60.777344 C 657.296875 59.230469 660.0625 58.457031 663.421875 58.457031 C 667.613281 58.457031 671.035156 59.496094 673.695313 61.582031 "/>
<path style=" stroke:none;fill-rule:evenodd;fill:rgb(100%,100%,100%);fill-opacity:1;" d="M 706.125 85.199219 C 707.847656 83.429688 708.710938 80.621094 708.710938 76.761719 C 708.710938 73.148438 707.878906 70.394531 706.242188 68.5 C 704.609375 66.609375 702.457031 65.664063 699.730469 65.664063 C 696.015625 65.664063 693.449219 67.308594 692.007813 70.59375 C 691.285156 72.355469 690.902344 74.507813 690.902344 77.082031 C 690.902344 79.292969 691.3125 81.269531 692.105469 82.988281 C 693.53125 86.214844 696.117188 87.828125 699.847656 87.828125 C 702.316406 87.828125 704.414063 86.953125 706.125 85.199219 Z M 702.523438 57.804688 C 705.101563 58.820313 707.195313 60.660156 708.761719 63.351563 L 708.761719 57.84375 L 719.078125 57.84375 L 719.078125 94.058594 C 719.078125 98.980469 718.210938 102.703125 716.4375 105.195313 C 713.410156 109.496094 707.597656 111.644531 699.035156 111.644531 C 693.835938 111.644531 689.597656 110.679688 686.324219 108.769531 C 683.054688 106.855469 681.222656 103.992188 680.894531 100.191406 L 692.421875 100.191406 C 692.734375 101.351563 693.203125 102.191406 693.878906 102.71875 C 695.015625 103.625 696.960938 104.0625 699.648438 104.0625 C 703.488281 104.0625 706.042969 102.875 707.332031 100.46875 C 708.171875 98.929688 708.59375 96.332031 708.59375 92.691406 L 708.59375 90.246094 C 707.558594 91.871094 706.480469 93.097656 705.3125 93.921875 C 703.203125 95.433594 700.460938 96.195313 697.089844 96.195313 C 691.875 96.195313 687.710938 94.492188 684.570313 91.050781 C 681.484375 87.589844 679.925781 82.929688 679.925781 77.035156 C 679.925781 71.371094 681.421875 66.609375 684.433594 62.757813 C 687.441406 58.890625 691.679688 56.941406 697.203125 56.941406 C 699.230469 56.941406 701.007813 57.238281 702.523438 57.804688 "/>
<path style=" stroke:none;fill-rule:nonzero;fill:rgb(100%,100%,100%);fill-opacity:1;" d="M 42.273438 59.847656 C 42.273438 50.46875 49.867188 42.859375 59.253906 42.859375 C 64.105469 42.859375 68.472656 44.890625 71.582031 48.15625 L 71.582031 53.082031 C 69.175781 48.738281 64.5625 45.789063 59.253906 45.789063 C 51.488281 45.789063 45.207031 52.078125 45.207031 59.847656 C 45.207031 65.910156 49.039063 71.074219 54.425781 73.042969 C 49.039063 75.011719 45.207031 80.175781 45.207031 86.238281 C 45.207031 93.992188 51.488281 100.292969 59.253906 100.292969 C 64.5625 100.292969 69.175781 97.34375 71.582031 93 L 71.582031 97.921875 C 68.472656 101.195313 64.105469 103.21875 59.253906 103.21875 C 49.867188 103.21875 42.273438 95.617188 42.273438 86.238281 C 42.273438 80.914063 44.722656 76.160156 48.5625 73.042969 C 44.722656 69.925781 42.273438 65.164063 42.273438 59.847656 "/>
<path style=" stroke:none;fill-rule:nonzero;fill:rgb(100%,100%,100%);fill-opacity:1;" d="M 49.839844 59.847656 C 49.839844 65.039063 54.050781 69.230469 59.253906 69.230469 C 59.371094 69.230469 59.488281 69.230469 59.609375 69.230469 L 68.648438 69.230469 L 68.648438 60.226563 C 68.65625 60.101563 68.65625 59.96875 68.65625 59.847656 C 68.65625 54.648438 64.445313 50.4375 59.253906 50.4375 C 54.050781 50.4375 49.839844 54.648438 49.839844 59.847656 Z M 59.253906 98.554688 C 52.433594 98.554688 46.894531 93.023438 46.894531 86.214844 C 46.894531 79.402344 52.433594 73.875 59.253906 73.875 C 59.453125 73.875 59.640625 73.875 59.847656 73.890625 L 68.648438 73.890625 L 68.648438 72.164063 L 59.828125 72.164063 C 59.628906 72.179688 59.453125 72.1875 59.253906 72.1875 C 52.433594 72.1875 46.894531 66.640625 46.894531 59.847656 C 46.894531 53.027344 52.433594 47.488281 59.253906 47.488281 C 66.066406 47.488281 71.589844 53.027344 71.589844 59.847656 C 71.589844 60.035156 71.589844 60.25 71.582031 60.441406 L 71.582031 85.628906 C 71.589844 85.824219 71.589844 86.019531 71.589844 86.214844 C 71.589844 93.023438 66.066406 98.554688 59.253906 98.554688 Z M 59.253906 95.617188 C 64.445313 95.617188 68.65625 91.402344 68.65625 86.214844 C 68.65625 86.082031 68.65625 85.964844 68.648438 85.855469 L 68.648438 76.816406 L 59.628906 76.816406 C 59.496094 76.808594 59.378906 76.808594 59.253906 76.808594 C 54.050781 76.808594 49.839844 81.019531 49.839844 86.214844 C 49.839844 91.402344 54.050781 95.617188 59.253906 95.617188 "/>
<path style=" stroke:none;fill-rule:nonzero;fill:rgb(100%,100%,100%);fill-opacity:1;" d="M 95.035156 86.238281 C 95.035156 81.046875 90.820313 76.84375 85.625 76.84375 C 85.507813 76.84375 85.386719 76.84375 85.261719 76.84375 L 76.226563 76.84375 L 76.226563 85.855469 C 76.214844 85.980469 76.214844 86.113281 76.214844 86.238281 C 76.214844 91.4375 80.429688 95.648438 85.625 95.648438 C 90.820313 95.648438 95.035156 91.4375 95.035156 86.238281 Z M 85.625 47.511719 C 92.441406 47.511719 97.964844 53.050781 97.964844 59.863281 C 97.964844 66.683594 92.441406 72.210938 85.625 72.210938 C 85.429688 72.210938 85.21875 72.207031 85.019531 72.199219 L 76.214844 72.199219 L 76.214844 73.914063 L 85.050781 73.914063 C 85.242188 73.90625 85.429688 73.898438 85.625 73.898438 C 92.441406 73.898438 97.964844 79.425781 97.964844 86.238281 C 97.964844 93.0625 92.441406 98.585938 85.625 98.585938 C 78.804688 98.585938 73.296875 93.0625 73.296875 86.238281 C 73.296875 86.042969 73.296875 85.84375 73.3125 85.636719 L 73.3125 75.476563 L 73.296875 70.484375 L 73.3125 60.441406 C 73.296875 60.257813 73.296875 60.070313 73.296875 59.863281 C 73.296875 53.050781 78.804688 47.511719 85.625 47.511719 Z M 85.625 50.46875 C 80.429688 50.46875 76.214844 54.671875 76.214844 59.863281 C 76.214844 59.984375 76.214844 60.117188 76.226563 60.226563 L 76.226563 69.265625 L 85.242188 69.265625 C 85.375 69.273438 85.492188 69.273438 85.625 69.273438 C 90.820313 69.273438 95.035156 65.050781 95.035156 59.863281 C 95.035156 54.671875 90.820313 50.46875 85.625 50.46875 Z M 102.613281 86.238281 C 102.613281 95.617188 95.003906 103.21875 85.625 103.21875 C 80.769531 103.21875 76.394531 101.195313 73.3125 97.921875 L 73.3125 93 C 75.679688 97.34375 80.3125 100.292969 85.625 100.292969 C 93.386719 100.292969 99.675781 93.992188 99.675781 86.238281 C 99.675781 80.175781 95.824219 75.011719 90.453125 73.042969 C 95.824219 71.074219 99.675781 65.910156 99.675781 59.847656 C 99.675781 52.078125 93.386719 45.789063 85.625 45.789063 C 80.3125 45.789063 75.679688 48.738281 73.3125 53.082031 L 73.3125 48.15625 C 76.394531 44.890625 80.769531 42.859375 85.625 42.859375 C 95.003906 42.859375 102.613281 50.46875 102.613281 59.847656 C 102.613281 65.164063 100.15625 69.925781 96.3125 73.042969 C 100.15625 76.160156 102.613281 80.914063 102.613281 86.238281 "/>
<path style=" stroke:none;fill-rule:nonzero;fill:rgb(100%,100%,100%);fill-opacity:1;" d="M 119.289063 97.167969 L 119.289063 44.421875 L 132.082031 44.421875 L 144.480469 81.148438 L 157.371094 44.421875 L 168.984375 44.421875 L 168.984375 97.167969 L 159.832031 97.167969 L 159.832031 54.578125 L 144.777344 97.167969 L 138.96875 97.167969 L 124.699219 54.578125 L 124.699219 97.167969 L 119.289063 97.167969 "/>
<path style=" stroke:none;fill-rule:evenodd;fill:rgb(100%,100%,100%);fill-opacity:1;" d="M 200.921875 87.382813 C 202.59375 85.308594 203.421875 82.351563 203.421875 78.523438 C 203.421875 74.695313 202.59375 71.757813 200.921875 69.703125 C 199.257813 67.613281 196.882813 66.589844 193.78125 66.589844 C 190.671875 66.589844 188.285156 67.613281 186.585938 69.703125 C 184.933594 71.757813 184.101563 74.695313 184.101563 78.523438 C 184.101563 82.351563 184.933594 85.308594 186.585938 87.382813 C 188.285156 89.46875 190.671875 90.507813 193.78125 90.507813 C 196.882813 90.507813 199.257813 89.46875 200.921875 87.382813 Z M 209.421875 92.917969 C 205.996094 96.890625 200.78125 98.871094 193.816406 98.871094 C 186.855469 98.871094 181.640625 96.890625 178.214844 92.917969 C 174.792969 88.925781 173.070313 84.128906 173.070313 78.523438 C 173.070313 73.027344 174.792969 68.246094 178.214844 64.207031 C 181.640625 60.160156 186.855469 58.144531 193.816406 58.144531 C 200.78125 58.144531 205.996094 60.160156 209.421875 64.207031 C 212.84375 68.246094 214.546875 73.027344 214.546875 78.523438 C 214.546875 84.128906 212.84375 88.925781 209.421875 92.917969 "/>
<path style=" stroke:none;fill-rule:evenodd;fill:rgb(100%,100%,100%);fill-opacity:1;" d="M 406.488281 54.824219 L 395.730469 54.824219 L 395.730469 45.613281 L 406.488281 45.613281 Z M 395.730469 59.371094 L 406.488281 59.371094 L 406.488281 97.53125 L 395.730469 97.53125 L 395.730469 59.371094 "/>
<path style=" stroke:none;fill-rule:evenodd;fill:rgb(100%,100%,100%);fill-opacity:1;" d="M 251.015625 94.40625 C 248.339844 92.34375 247.007813 88.933594 247.007813 84.15625 L 247.007813 58.457031 L 257.867188 58.457031 L 257.867188 81.675781 C 257.867188 83.660156 258.152344 85.207031 258.707031 86.285156 C 259.761719 88.261719 261.757813 89.222656 264.6875 89.222656 C 268.269531 89.222656 270.738281 87.800781 272.085938 84.921875 C 272.792969 83.410156 273.128906 81.460938 273.128906 79.121094 L 273.128906 58.457031 L 283.707031 58.457031 L 283.707031 96.554688 L 273.476563 96.554688 L 273.476563 90.976563 C 272.113281 92.941406 270.808594 94.355469 269.585938 95.214844 C 267.417969 96.761719 264.648438 97.53125 261.292969 97.53125 C 257.097656 97.53125 253.679688 96.496094 251.015625 94.40625 "/>
<path style=" stroke:none;fill-rule:evenodd;fill:rgb(100%,100%,100%);fill-opacity:1;" d="M 377.523438 85.414063 C 378.949219 83.152344 379.675781 80.550781 379.675781 77.605469 C 379.675781 74.03125 378.898438 71.171875 377.320313 69.019531 C 375.789063 66.875 373.546875 65.796875 370.601563 65.796875 C 368.558594 65.796875 366.8125 66.332031 365.304688 67.378906 C 362.800781 69.167969 361.550781 72.289063 361.550781 76.726563 C 361.550781 79.523438 361.929688 81.84375 362.667969 83.671875 C 364.113281 87.089844 366.738281 88.808594 370.601563 88.808594 C 373.773438 88.808594 376.097656 87.675781 377.523438 85.414063 Z M 385.679688 92.59375 C 382.390625 95.875 378.382813 97.53125 373.652344 97.53125 C 370.386719 97.53125 367.597656 96.671875 365.230469 94.96875 C 363.941406 94.019531 362.726563 92.707031 361.585938 91.046875 L 361.585938 96.691406 L 351.425781 96.691406 L 351.425781 43.496094 L 361.929688 43.496094 L 361.929688 63.386719 C 363.046875 61.773438 364.179688 60.550781 365.34375 59.707031 C 367.480469 58.199219 370.152344 57.441406 373.375 57.441406 C 378.441406 57.441406 382.585938 59.203125 385.769531 62.726563 C 389.015625 66.246094 390.621094 71.378906 390.621094 78.097656 C 390.621094 84.464844 388.976563 89.292969 385.679688 92.59375 "/>
<path style=" stroke:none;fill-rule:evenodd;fill:rgb(100%,100%,100%);fill-opacity:1;" d="M 320.574219 60.582031 C 323.253906 62.644531 324.585938 66.054688 324.585938 70.835938 L 324.585938 96.53125 L 313.722656 96.53125 L 313.722656 73.316406 C 313.722656 71.328125 313.4375 69.78125 312.882813 68.703125 C 311.828125 66.730469 309.835938 65.765625 306.902344 65.765625 C 303.320313 65.765625 300.851563 67.1875 299.503906 70.070313 C 298.796875 71.582031 298.460938 73.53125 298.460938 75.871094 L 298.460938 96.53125 L 287.886719 96.53125 L 287.886719 58.433594 L 298.113281 58.433594 L 298.113281 64.011719 C 299.476563 62.046875 300.78125 60.632813 302.003906 59.777344 C 304.175781 58.230469 306.941406 57.457031 310.300781 57.457031 C 314.492188 57.457031 317.910156 58.496094 320.574219 60.582031 "/>
<path style=" stroke:none;fill-rule:evenodd;fill:rgb(100%,100%,100%);fill-opacity:1;" d="M 344.046875 60.582031 C 346.722656 62.644531 348.054688 66.054688 348.054688 70.835938 L 348.054688 96.53125 L 337.191406 96.53125 L 337.191406 73.316406 C 337.191406 71.328125 336.90625 69.78125 336.351563 68.703125 C 335.300781 66.730469 333.304688 65.765625 330.371094 65.765625 C 326.789063 65.765625 324.320313 67.1875 322.976563 70.070313 C 322.269531 71.582031 321.929688 71.191406 321.929688 73.53125 L 321.929688 75.871094 L 321.585938 64.011719 C 322.945313 62.046875 324.25 60.632813 325.472656 59.777344 C 327.644531 58.230469 330.410156 57.457031 333.769531 57.457031 C 337.960938 57.457031 341.382813 58.496094 344.046875 60.582031 "/>
</g>
</svg>
