<?xml version="1.0" encoding="UTF-8"?>
<svg xmlns="http://www.w3.org/2000/svg" id="Layer_1" data-name="Layer 1" version="1.1" viewBox="0 0 353.15 78.42">
  <defs>
    <style>
      .cls-1 {
        fill: #e00814;
      }

      .cls-1, .cls-2, .cls-3 {
        stroke-width: 0px;
      }

      .cls-2 {
        fill: #1e1b15;
      }

      .cls-3 {
        fill: #fff;
      }
    </style>
  </defs>
  <g>
    <g>
      <path class="cls-3" d="M288.84,10.81c6.51,0,9.95,3.29,9.95,9.51v11.85c0,3.95-1.68,6.73-5.12,7.76v.07c3.44.88,4.61,3.66,4.76,8.05l.15,10.1c.15,3.07.44,5.41.88,7.02h-6.88c-.29-1.39-.66-4.17-.8-7.83l-.22-10.39c-.15-2.41-1.24-3.59-3.66-3.59h-2.2v21.8h-6.95V10.81h10.1ZM285.7,37.59h2.56c2.12,0,3.59-1.17,3.59-4.32v-12.51c0-2.56-1.1-3.95-3.29-3.95h-2.85v20.78M288.84,9.5h-11.4v56.98h9.57v-21.8h.89c1.67,0,2.24.57,2.35,2.33l.22,10.36h0s0,.02,0,.02c.15,3.73.53,6.6.83,8.05l.22,1.04h9.65l-.45-1.65c-.41-1.51-.69-3.77-.83-6.72l-.15-10.08h0s0-.02,0-.02c-.1-2.87-.58-6.16-3.11-8.06,2.26-1.61,3.48-4.28,3.48-7.78v-11.85c0-6.98-4-10.82-11.26-10.82M287.01,18.12h1.55c1.03,0,1.99.32,1.99,2.64v12.51c0,2.65-1.1,3.01-2.28,3.01h-1.25v-18.17Z"></path>
      <path class="cls-3" d="M324.26,10.81v43.24c0,8.12-3.29,11.93-10.1,11.93s-10.24-3.88-10.24-11.85V10.81h6.95v43.97c0,3.37,1.17,4.98,3.29,4.98s3.22-1.61,3.22-4.98V10.81h6.88ZM325.57,9.5h-9.49v45.28c0,3.67-1.44,3.67-1.91,3.67-.54,0-1.99,0-1.99-3.67V9.5h-9.57v44.62c0,4.28.97,7.57,2.89,9.78,1.95,2.25,4.87,3.39,8.66,3.39,7.57,0,11.4-4.45,11.4-13.23V9.5Z"></path>
      <path class="cls-3" d="M351.84,10.81v54.36h-7.46l-6.07-27.73-1.39-7.9h-.15l.44,8.93v26.71h-6.8V10.81h7.39l6.15,27.73,1.39,7.98h.15l-.44-8.93V10.81h6.8ZM353.15,9.5h-9.42v22.05l-4.66-21.03-.23-1.02h-9.75v56.98h9.42v-21.97l4.59,20.94.22,1.03h9.82V9.5Z"></path>
    </g>
    <g>
      <polygon class="cls-3" points="90.18 9.5 90.18 17.31 96.38 17.31 96.38 66.45 104.88 66.45 104.88 17.31 111.08 17.31 111.08 9.5 90.18 9.5"></polygon>
      <path class="cls-3" d="M113.52,66.44V9.5h11.1c7.12,0,10.79,3.6,10.79,10.1v12.48c0,3.98-1.53,6.96-5.28,8.11v.08c3.75.92,4.9,3.9,4.97,8.57l.15,10.49c.08,3.06.31,5.51.77,7.12h-8.42c-.31-1.38-.61-4.29-.69-8.11l-.15-10.79c-.08-2.3-1.07-3.37-3.14-3.37h-1.61v22.27h-8.5ZM122.02,37.44h1.99c1.76,0,2.98-.92,2.98-3.9v-13.16c0-2.53-1-3.6-2.83-3.6h-2.14v20.66Z"></path>
      <rect class="cls-3" x="138.55" y="9.5" width="8.5" height="56.94"></rect>
      <path class="cls-3" d="M150.57,54.51V21.52c0-8.42,3.75-12.78,11.17-12.78s11.1,4.59,11.1,12.48v10.48h-8.5v-11.4c0-2.45-.61-3.98-2.6-3.98-1.68,0-2.68,1.15-2.68,3.98v35.36c0,2.83.99,4.06,2.68,4.06s2.6-1.22,2.6-3.98v-12.55h8.5v11.63c0,7.88-3.29,12.47-11.1,12.47-7.27,0-11.17-4.36-11.17-12.78"></path>
      <path class="cls-3" d="M175.59,54.51V21.44c0-8.27,3.83-12.7,11.17-12.7s11.17,4.44,11.17,12.7v33.06c0,8.34-3.83,12.78-11.17,12.78s-11.17-4.44-11.17-12.78M189.45,55.65V20.29c0-2.83-1-3.98-2.68-3.98s-2.68,1.15-2.68,3.98v35.36c0,2.83,1,4.06,2.68,4.06s2.68-1.23,2.68-4.06"></path>
      <polygon class="cls-3" points="201.46 66.45 201.46 9.5 209.96 9.5 209.96 58.71 218.37 58.71 218.37 66.45 201.46 66.45"></polygon>
      <path class="cls-3" d="M220.13,54.51V21.44c0-8.27,3.83-12.7,11.17-12.7s11.17,4.44,11.17,12.7v33.06c0,8.34-3.83,12.78-11.17,12.78s-11.17-4.44-11.17-12.78M233.99,55.65V20.29c0-2.83-.99-3.98-2.68-3.98s-2.68,1.15-2.68,3.98v35.36c0,2.83,1,4.06,2.68,4.06s2.68-1.23,2.68-4.06"></path>
      <path class="cls-3" d="M246,66.44V9.5h11.1c7.12,0,10.79,3.6,10.79,10.1v12.48c0,3.98-1.53,6.96-5.28,8.11v.08c3.75.92,4.9,3.9,4.97,8.57l.15,10.49c.08,3.06.31,5.51.77,7.12h-8.42c-.31-1.38-.61-4.29-.69-8.11l-.15-10.79c-.08-2.3-1.07-3.37-3.14-3.37h-1.61v22.27h-8.5ZM254.5,37.44h1.99c1.76,0,2.98-.92,2.98-3.9v-13.16c0-2.53-1-3.6-2.83-3.6h-2.14v20.66Z"></path>
    </g>
  </g>
  <g>
    <g>
      <polygon class="cls-1" points="59.43 9.91 1.97 9.91 1.97 16.06 54.4 16.06 59.43 9.91"></polygon>
      <polygon class="cls-1" points="53.42 17.25 1.97 17.25 1.97 23.94 47.95 23.94 53.42 17.25"></polygon>
      <polygon class="cls-1" points="65.92 1.97 1.97 1.97 1.97 8.72 60.4 8.72 65.92 1.97"></polygon>
      <path class="cls-1" d="M63.4,8.72c-6.78,8.29-16.48,20.16-23.33,28.53l4.63,5.67L75.37,5.39V1.97h-6.46l-5.52,6.75Z"></path>
      <polygon class="cls-1" points="49.67 48.98 75.37 17.53 75.37 7.28 45.48 43.86 49.67 48.98"></polygon>
      <polygon class="cls-1" points="54.92 55.41 54.92 55.41 75.37 30.4 75.37 19.42 50.44 49.93 54.92 55.41"></polygon>
      <path class="cls-1" d="M1.97,26.19v4.2c2.51,3.07,33.27,40.69,36.71,44.9,1.33-1.65,3.1-3.83,4.43-5.47L7.45,26.19H1.97Z"></path>
      <path class="cls-1" d="M18.92,26.19l29.9,36.58c.82-1.01,3.7-4.58,4.57-5.64-6.16-7.54-19.21-23.51-25.28-30.94h-9.18Z"></path>
      <path class="cls-1" d="M8.99,26.19l34.88,42.68c1.18-1.45,2.99-3.7,4.17-5.15L17.38,26.19h-8.38Z"></path>
      <polygon class="cls-2" points="17.38 26.19 48.05 63.73 48.82 62.78 18.92 26.19 17.38 26.19"></polygon>
      <polygon class="cls-2" points="7.45 26.19 43.11 69.82 43.88 68.87 8.99 26.19 7.45 26.19"></polygon>
      <polygon class="cls-2" points="45.48 43.86 75.37 7.28 75.37 5.39 44.71 42.91 45.48 43.86"></polygon>
      <polygon class="cls-2" points="50.44 49.93 75.37 19.42 75.37 17.53 49.67 48.98 50.44 49.93"></polygon>
      <polygon class="cls-2" points="60.4 8.72 1.97 8.72 1.97 9.91 59.43 9.91 60.4 8.72"></polygon>
      <polygon class="cls-2" points="54.4 16.06 1.97 16.06 1.97 17.25 53.42 17.25 54.4 16.06"></polygon>
    </g>
    <g>
      <path class="cls-3" d="M65.92,1.97l-5.52,6.75-.98,1.19-5.03,6.15-.98,1.19-5.48,6.7H1.97V1.97h63.95M70.08,0H0v25.91h48.88l.59-.72,5.48-6.7.98-1.19,5.03-6.15.98-1.19,5.52-6.75,2.63-3.21h0Z"></path>
      <path class="cls-3" d="M75.37,1.97v28.43l-20.45,25.01h0l-4.48-5.48-.77-.94-4.19-5.13-.77-.94-4.63-5.67c6.85-8.37,16.55-20.24,23.33-28.53l5.52-6.75h6.46M77.34,0h-9.36l-.59.72-5.52,6.75c-6.78,8.29-16.48,20.16-23.33,28.53l-1.02,1.25,1.02,1.25,4.63,5.67.77.94,4.19,5.13.77.94,4.48,5.48.59.72h1.87l.59-.72,20.45-25.01.44-.54V0h0Z"></path>
      <path class="cls-3" d="M28.1,26.19c6.07,7.43,19.12,23.4,25.28,30.94-.86,1.07-3.75,4.63-4.57,5.64l-.77.95c-1.18,1.45-2.99,3.69-4.17,5.15l-.77.95c-1.33,1.65-3.1,3.82-4.43,5.47C35.24,71.09,4.47,33.47,1.97,30.4v-4.2h26.13M29.03,24.23H0v6.87l.44.54c1.12,1.37,7.86,9.61,15.29,18.7,9.23,11.28,19.52,23.87,21.42,26.2l1.53,1.87,1.52-1.88,1.87-2.31,2.56-3.16.77-.95,2.13-2.63,2.04-2.52.77-.95,2.57-3.17,2-2.47,1.01-1.24-1.01-1.24-25.28-30.94-.59-.72h0Z"></path>
    </g>
  </g>
</svg>
